<svg width="28" height="50" viewBox="0 0 28 50" fill="none" xmlns="http://www.w3.org/2000/svg">
<path d="M13.6721 13.3465C13.7252 13.4276 13.8995 13.6901 13.9516 13.7823C18.1176 20.7556 19.8669 49.229 19.8669 49.229C23.7353 49.3643 26.4966 48.7441 26.4966 48.7441L24.3565 22.2224L22.6302 2.67711L22.6793 0.751435C22.6793 0.751435 19.9401 2.05593 13.7913 2.19319H13.4607C7.31196 2.05593 4.6058 0.751435 4.6058 0.751435L4.61982 2.67711L2.89252 22.2224L0.751435 48.7441C0.751435 48.7441 3.51271 49.3653 7.3821 49.229C7.3821 49.229 9.13044 20.7556 13.2944 13.7823C13.3485 13.6901 13.5218 13.4276 13.5769 13.3465H13.6721V13.3465Z" stroke="#FC6828" stroke-width="1.5" stroke-miterlimit="10" stroke-linecap="round" stroke-linejoin="round"/>
</svg>
