<svg width="44" height="56" viewBox="0 0 44 56" fill="none" xmlns="http://www.w3.org/2000/svg">
<path d="M1.65515 45.7205C1.65515 45.7205 0.549853 47.9543 0.789217 48.5497L4.7166 49.2607C4.7166 49.2607 5.40955 47.7732 5.77764 46.6378L6.05623 46.7011L11.2559 30.5762L11.4349 49.6871C11.4349 49.6871 11.3313 51.418 12.5633 52.1089C12.5633 52.1089 12.5985 52.5072 12.5633 53.9555C12.5633 53.9555 18.3955 56.2817 31.8593 53.6236L31.8603 51.2973C32.3058 51.0499 32.512 50.4686 32.5241 50.0784L32.7051 30.5732L37.9047 46.6981L38.2959 46.6096C38.657 47.725 39.365 49.2285 39.365 49.2285L43.214 48.5285C43.4473 47.9482 42.3159 45.7185 42.3159 45.7185L42.7413 45.622L35.5724 19.8089L28.0817 16.0293L27.6684 15.0769C32.3088 12.0577 30.4704 9.41666 30.4704 9.41666C25.9949 1.26219 22.3139 0.755304 22.3139 0.755304C18.5625 2.19853 14.5195 9.84912 14.5195 9.84912C13.2925 12.8784 16.8296 14.8999 16.8296 14.8999L16.8115 16.0595L8.3855 19.8089L1.21665 45.622L1.65515 45.7205Z" stroke="#FC6828" stroke-width="1.5" stroke-miterlimit="10" stroke-linecap="round" stroke-linejoin="round"/>
<path d="M17.1455 38.6533L13.9523 44.2099" stroke="#FC6828" stroke-width="1.5" stroke-miterlimit="10" stroke-linecap="round" stroke-linejoin="round"/>
<path d="M26.5149 38.6533L29.7111 44.2099" stroke="#FC6828" stroke-width="1.5" stroke-miterlimit="10" stroke-linecap="round" stroke-linejoin="round"/>
<path d="M5.77664 46.6358L6.05522 46.6991L11.2549 30.5742L11.4339 49.6851C11.4339 49.6851 11.3303 51.417 12.5623 52.1069C12.7373 52.2095 12.864 52.2487 13.1024 52.297C13.1024 52.297 17.0579 53.0966 22.1721 52.9568C21.2619 47.8115 22.1288 21.8153 22.1288 21.8153C21.4811 19.7003 21.2046 17.5691 21.2046 17.5691C20.7831 15.9791 16.8306 14.8989 16.8306 14.8989L16.8125 16.0585L8.38651 19.8079L1.21665 45.622L1.65515 45.7205" stroke="#FC6828" stroke-width="1.5" stroke-miterlimit="10" stroke-linecap="round" stroke-linejoin="round"/>
<path d="M5.77666 46.6358C5.40856 47.7722 4.71561 49.2597 4.71561 49.2597L0.788235 48.5487C0.548871 47.9512 1.65417 45.7195 1.65417 45.7195L5.80281 46.6408L5.77666 46.6358Z" stroke="#FC6828" stroke-width="1.5" stroke-miterlimit="10" stroke-linecap="round" stroke-linejoin="round"/>
<path d="M42.3158 45.7185C42.3158 45.7185 43.4472 47.9482 43.2129 48.5285L39.364 49.2285C39.364 49.2285 38.6549 47.727 38.2949 46.6096L42.3158 45.7185Z" stroke="#FC6828" stroke-width="1.5" stroke-miterlimit="10" stroke-linecap="round" stroke-linejoin="round"/>
<path d="M30.8305 51.6996C27.8957 52.5515 24.8725 52.8864 22.1711 52.9588C21.2609 47.8125 22.1279 21.8163 22.1279 21.8163C23.6807 20.185 23.8034 18.0418 23.8034 18.0418C24.3455 16.2576 27.6695 15.0769 27.6695 15.0769L28.0828 16.0293L35.5725 19.8089L42.7413 45.623L42.3159 45.7195C42.3159 45.7195 43.4474 47.9492 43.214 48.5295L39.3651 49.2295C39.3651 49.2295 38.6561 47.728 38.296 46.6106L37.9048 46.6991L32.7052 30.5742L32.5241 50.0794C32.5121 50.4696 32.3069 51.0509 31.8603 51.2983C31.4631 51.5176 30.8305 51.6996 30.8305 51.6996Z" stroke="#FC6828" stroke-width="1.5" stroke-miterlimit="10" stroke-linecap="round" stroke-linejoin="round"/>
<path d="M12.5614 52.1089C12.7363 52.2105 12.8631 52.2497 13.1014 52.298C13.1014 52.298 17.057 53.0976 22.1711 52.9588C24.8735 52.8864 27.8957 52.5515 30.8305 51.6996C30.8305 51.6996 31.4631 51.5166 31.8573 51.2973L31.8563 53.6236C18.3926 56.2837 12.5603 53.9555 12.5603 53.9555C12.5976 52.5062 12.5614 52.1089 12.5614 52.1089Z" stroke="#FC6828" stroke-width="1.5" stroke-miterlimit="10" stroke-linecap="round" stroke-linejoin="round"/>
<path d="M16.8296 14.8999C16.8296 14.8999 20.7821 15.9801 21.2035 17.5701C21.2035 17.5701 21.4801 19.7013 22.1278 21.8163C23.6807 20.185 23.8034 18.0418 23.8034 18.0418C24.3454 16.2576 27.6694 15.0769 27.6694 15.0769C32.3098 12.0577 30.4714 9.41666 30.4714 9.41666C25.9959 1.26219 22.3139 0.755304 22.3139 0.755304C18.5635 2.19853 14.5205 9.84912 14.5205 9.84912C13.2925 12.8784 16.8296 14.8999 16.8296 14.8999Z" stroke="#FC6828" stroke-width="1.5" stroke-miterlimit="10" stroke-linecap="round" stroke-linejoin="round"/>
<path d="M18.0556 10.352C18.0556 10.352 17.3344 11.9421 18.9205 13.6739C20.5095 15.4068 22.4717 15.4138 22.522 18.0428" stroke="#FC6828" stroke-width="1.5" stroke-miterlimit="10" stroke-linecap="round" stroke-linejoin="round"/>
<path d="M26.7159 9.60574C26.7159 9.60574 28.0857 12.6622 26.7159 13.5291C25.3451 14.394 22.0252 15.8966 22.522 20.5501" stroke="#FC6828" stroke-width="1.5" stroke-miterlimit="10" stroke-linecap="round" stroke-linejoin="round"/>
<path d="M30.6978 11.4382C29.1952 7.03911 22.5242 7.8266 22.5242 7.8266C14.4321 8.62113 14.2652 11.0741 14.2652 11.0741C14.2108 10.4294 14.5196 9.84812 14.5196 9.84812C14.5196 9.84812 18.5616 2.19752 22.314 0.754298C22.314 0.754298 25.996 1.26119 30.4705 9.41565C30.4705 9.41666 30.9975 10.352 30.6978 11.4382Z" stroke="#FC6828" stroke-width="1.5" stroke-miterlimit="10" stroke-linecap="round" stroke-linejoin="round"/>
</svg>
