<svg width="20" height="20" viewBox="0 0 20 20" fill="none" xmlns="http://www.w3.org/2000/svg">
<path d="M12.875 9.5H10.5V7.125C10.5 7.05625 10.4438 7 10.375 7H9.625C9.55625 7 9.5 7.05625 9.5 7.125V9.5H7.125C7.05625 9.5 7 9.55625 7 9.625V10.375C7 10.4438 7.05625 10.5 7.125 10.5H9.5V12.875C9.5 12.9437 9.55625 13 9.625 13H10.375C10.4438 13 10.5 12.9437 10.5 12.875V10.5H12.875C12.9437 10.5 13 10.4438 13 10.375V9.625C13 9.55625 12.9437 9.5 12.875 9.5Z" fill="#040415"/>
<path d="M10 1.25C5.16797 1.25 1.25 5.16797 1.25 10C1.25 14.832 5.16797 18.75 10 18.75C14.832 18.75 18.75 14.832 18.75 10C18.75 5.16797 14.832 1.25 10 1.25ZM10 17.2656C5.98828 17.2656 2.73438 14.0117 2.73438 10C2.73438 5.98828 5.98828 2.73438 10 2.73438C14.0117 2.73438 17.2656 5.98828 17.2656 10C17.2656 14.0117 14.0117 17.2656 10 17.2656Z" fill="#CCCCCC"/>
</svg>
