<svg width="93" height="144" viewBox="0 0 93 144" fill="none" xmlns="http://www.w3.org/2000/svg">
<mask id="mask0_49_508" style="mask-type:alpha" maskUnits="userSpaceOnUse" x="-274" y="0" width="367" height="144">
<rect x="-273.705" width="366" height="144" rx="16" fill="#90B6FF"/>
</mask>
<g mask="url(#mask0_49_508)">
<path d="M0.000103961 83.4628C0.000102509 71.146 13.3334 63.448 24.0001 69.6064L119.25 124.599C129.917 130.757 129.917 146.153 119.25 152.312L24.0001 207.304C13.3335 213.463 9.75868e-05 205.765 0.000103032 193.448L0.000103961 83.4628Z" fill="#3D190A"/>
<path d="M29.2947 50.3564C18.628 44.198 18.628 28.802 29.2947 22.6436L103.545 -20.2247C114.211 -26.3831 127.545 -18.6851 127.545 -6.36826L127.545 79.3682C127.545 91.6851 114.211 99.3831 103.545 93.2247L29.2947 50.3564Z" fill="#3D190A"/>
</g>
</svg>
