<svg width="35" height="52" viewBox="0 0 35 52" fill="none" xmlns="http://www.w3.org/2000/svg">
<path d="M17.4705 18.7154C17.529 18.8011 17.7096 19.0756 17.7661 19.1704C22.1186 26.4639 23.9518 51.2277 23.9518 51.2277C27.9935 51.371 33.8099 50.134 33.8099 50.134L30.0598 22.9165L28.6775 14.1833L27.1056 4.26872L26.4771 0.757695C26.4771 0.757695 24.0204 1.9129 17.5946 2.05516H17.2485C10.8238 1.91189 8.22884 0.770811 8.22884 0.770811L7.60634 4.19507L4.50594 23.3352L0.75681 50.4155C0.75681 50.4155 6.85167 51.372 10.8944 51.2287C10.8944 51.2287 12.7256 26.4669 17.0811 19.1724C17.1376 19.0776 17.3161 18.8032 17.3757 18.7174L17.4705 18.7154Z" stroke="#FC6828" stroke-width="1.5" stroke-miterlimit="10" stroke-linecap="round" stroke-linejoin="round"/>
<path d="M11.64 5.49052L6.04955 14.1854" stroke="#FC6828" stroke-width="1.5" stroke-miterlimit="10" stroke-linecap="round" stroke-linejoin="round"/>
<path d="M28.6776 14.1843L27.7605 8.39822L27.0956 4.19709C25.9081 4.74393 24.3463 5.14951 22.9096 5.35735L28.6776 14.1843Z" stroke="#FC6828" stroke-width="1.5" stroke-miterlimit="10" stroke-linecap="round" stroke-linejoin="round"/>
<path d="M6.04955 14.1843L6.96565 8.39822L7.63254 4.19709C8.82004 4.74393 10.3798 5.14951 11.8185 5.35735L6.04955 14.1843Z" stroke="#FC6828" stroke-width="1.5" stroke-miterlimit="10" stroke-linecap="round" stroke-linejoin="round"/>
<path d="M16.2508 15.8662L17.3757 18.6659" stroke="#FC6828" stroke-width="1.5" stroke-miterlimit="10" stroke-linecap="round" stroke-linejoin="round"/>
<path d="M20.5034 5.60755C18.9335 5.7145 17.7763 5.69331 17.7763 5.69331H17.4332C17.4332 5.69331 18.4159 14.6232 16.2508 15.8662L16.951 16.1356C22.4647 16.7147 20.5034 5.60755 20.5034 5.60755Z" stroke="#FC6828" stroke-width="1.5" stroke-miterlimit="10" stroke-linecap="round" stroke-linejoin="round"/>
<path d="M7.60628 4.19406L8.22878 0.769803C8.22878 0.769803 10.8237 1.91089 17.2485 2.05415H17.5945C24.0203 1.91089 26.476 0.756687 26.476 0.756687L27.0945 4.19709C25.907 4.74392 24.3452 5.14951 22.9075 5.35734C20.2732 5.7377 17.7761 5.69331 17.7761 5.69331H17.4331C17.4331 5.69331 10.967 5.74275 7.60628 4.19406Z" stroke="#FC6828" stroke-width="1.5" stroke-miterlimit="10" stroke-linecap="round" stroke-linejoin="round"/>
<path d="M19.5449 3.77637C19.5449 3.92166 19.4309 4.04071 19.2866 4.04071C19.1403 4.04071 19.0203 3.92166 19.0203 3.77637C19.0203 3.63311 19.1403 3.51607 19.2866 3.51607C19.4309 3.51607 19.5449 3.63311 19.5449 3.77637Z" stroke="#FC6828" stroke-width="1.5" stroke-miterlimit="10" stroke-linecap="round" stroke-linejoin="round"/>
<path d="M17.4241 2.57375V5.24535" stroke="#FC6828" stroke-width="1.5" stroke-miterlimit="10" stroke-linecap="round" stroke-linejoin="round"/>
</svg>
