<svg width="57" height="52" viewBox="0 0 57 52" fill="none" xmlns="http://www.w3.org/2000/svg">
<path d="M40.3876 46.6932C40.3876 28.0091 40.805 19.5525 40.805 19.5525L48.5652 48.8988H55.8775L44.9798 7.54791C42.6306 4.4659 41.0668 3.89175 41.0668 3.89175L33.4442 0.7592C31.2628 3.635 27.6694 5.66373 27.6694 5.66373H27.3894C27.3894 5.66373 23.7686 3.635 21.6135 0.7592L13.9908 3.89175C13.9908 3.89175 12.4281 4.4659 10.0779 7.54791L0.75812 48.8998H7.89354L14.2557 19.5535C14.2557 19.5535 14.6701 28.0091 14.6701 46.6932H16.7231V49.2516H38.2628V46.6932H40.3876Z" stroke="#FC6828" stroke-width="1.5" stroke-miterlimit="10" stroke-linecap="round" stroke-linejoin="round"/>
<path d="M19.0167 1.82561L21.6125 0.758182C23.7676 3.63398 27.3883 5.66271 27.3883 5.66271H27.6673C27.6673 5.66271 31.2598 3.63398 33.4412 0.758182L36.0521 1.83067C33.1713 5.86184 27.7239 8.98328 27.7239 8.98328H27.3307C27.3317 8.98328 21.7934 5.95181 19.0167 1.82561Z" stroke="#FC6828" stroke-width="1.5" stroke-miterlimit="10" stroke-linecap="round" stroke-linejoin="round"/>
<path d="M6.9323 48.8988H2.27037L1.75081 51.2419H6.44812L6.9323 48.8988Z" stroke="#FC6828" stroke-width="1.5" stroke-miterlimit="10" stroke-linecap="round" stroke-linejoin="round"/>
<path d="M49.8226 48.8988H54.4855L55.0031 51.2419H50.3057L49.8226 48.8988Z" stroke="#FC6828" stroke-width="1.5" stroke-miterlimit="10" stroke-linecap="round" stroke-linejoin="round"/>
<path d="M38.2628 46.6932H16.7231V49.2506H38.2628V46.6932Z" stroke="#FC6828" stroke-width="1.5" stroke-miterlimit="10" stroke-linecap="round" stroke-linejoin="round"/>
</svg>
